<svg xmlns="http://www.w3.org/2000/svg" viewBox="0 0 936 648" font-family="-apple-system, BlinkMacSystemFont, 'Segoe UI', sans-serif"><rect width="936" height="648" fill="#f1f5f9" rx="10"/><text x="468" y="30" text-anchor="middle" font-size="20" font-weight="700" fill="#0f172a">Token efficiency: tokens vs retention (#1256)</text><text x="468" y="52" text-anchor="middle" font-size="12" fill="#64748b">Upper-left wins: fewer tokens, higher retention. Color = library. Faceted by archetype.</text><g><rect x="24" y="80" width="280" height="200" fill="#ffffff" stroke="#e2e8f0" rx="6"/><text x="164" y="98" text-anchor="middle" font-size="13" font-weight="700" fill="#0f172a">docs</text><rect x="52" y="108" width="224" height="144" fill="#f8fafc" stroke="#cbd5e1" stroke-width="0.5" rx="2"/><text x="52" y="268" font-size="9" fill="#64748b">log10 tokens</text><text x="48" y="116" text-anchor="end" font-size="9" fill="#64748b">retention</text><circle cx="74.1" cy="108.0" r="4" fill="#6366f1" fill-opacity="0.75" stroke="#0f172a" stroke-width="0.5"/><circle cx="71.5" cy="108.0" r="4" fill="#6366f1" fill-opacity="0.75" stroke="#0f172a" stroke-width="0.5"/><circle cx="68.8" cy="108.0" r="4" fill="#6366f1" fill-opacity="0.75" stroke="#0f172a" stroke-width="0.5"/><circle cx="67.7" cy="108.0" r="4" fill="#6366f1" fill-opacity="0.75" stroke="#0f172a" stroke-width="0.5"/><circle cx="67.7" cy="108.0" r="4" fill="#6366f1" fill-opacity="0.75" stroke="#0f172a" stroke-width="0.5"/><circle cx="70.5" cy="108.0" r="4" fill="#6366f1" fill-opacity="0.75" stroke="#0f172a" stroke-width="0.5"/><circle cx="71.0" cy="108.0" r="4" fill="#6366f1" fill-opacity="0.75" stroke="#0f172a" stroke-width="0.5"/><circle cx="67.7" cy="108.0" r="4" fill="#6366f1" fill-opacity="0.75" stroke="#0f172a" stroke-width="0.5"/><circle cx="69.4" cy="108.0" r="4" fill="#6366f1" fill-opacity="0.75" stroke="#0f172a" stroke-width="0.5"/><circle cx="67.1" cy="108.0" r="4" fill="#6366f1" fill-opacity="0.75" stroke="#0f172a" stroke-width="0.5"/><circle cx="237.0" cy="108.0" r="4" fill="#f97316" fill-opacity="0.75" stroke="#0f172a" stroke-width="0.5"/><circle cx="236.9" cy="108.0" r="4" fill="#f97316" fill-opacity="0.75" stroke="#0f172a" stroke-width="0.5"/><circle cx="236.8" cy="108.0" r="4" fill="#f97316" fill-opacity="0.75" stroke="#0f172a" stroke-width="0.5"/><circle cx="236.7" cy="108.0" r="4" fill="#f97316" fill-opacity="0.75" stroke="#0f172a" stroke-width="0.5"/><circle cx="236.7" cy="108.0" r="4" fill="#f97316" fill-opacity="0.75" stroke="#0f172a" stroke-width="0.5"/><circle cx="236.8" cy="108.0" r="4" fill="#f97316" fill-opacity="0.75" stroke="#0f172a" stroke-width="0.5"/><circle cx="236.9" cy="108.0" r="4" fill="#f97316" fill-opacity="0.75" stroke="#0f172a" stroke-width="0.5"/><circle cx="236.7" cy="108.0" r="4" fill="#f97316" fill-opacity="0.75" stroke="#0f172a" stroke-width="0.5"/><circle cx="236.8" cy="108.0" r="4" fill="#f97316" fill-opacity="0.75" stroke="#0f172a" stroke-width="0.5"/><circle cx="236.7" cy="108.0" r="4" fill="#f97316" fill-opacity="0.75" stroke="#0f172a" stroke-width="0.5"/></g><g><rect x="328" y="80" width="280" height="200" fill="#ffffff" stroke="#e2e8f0" rx="6"/><text x="468" y="98" text-anchor="middle" font-size="13" font-weight="700" fill="#0f172a">ecommerce</text><rect x="356" y="108" width="224" height="144" fill="#f8fafc" stroke="#cbd5e1" stroke-width="0.5" rx="2"/><text x="356" y="268" font-size="9" fill="#64748b">log10 tokens</text><text x="352" y="116" text-anchor="end" font-size="9" fill="#64748b">retention</text><circle cx="368.1" cy="108.0" r="4" fill="#6366f1" fill-opacity="0.75" stroke="#0f172a" stroke-width="0.5"/><circle cx="366.8" cy="108.0" r="4" fill="#6366f1" fill-opacity="0.75" stroke="#0f172a" stroke-width="0.5"/><circle cx="368.1" cy="108.0" r="4" fill="#6366f1" fill-opacity="0.75" stroke="#0f172a" stroke-width="0.5"/><circle cx="367.5" cy="108.0" r="4" fill="#6366f1" fill-opacity="0.75" stroke="#0f172a" stroke-width="0.5"/><circle cx="366.8" cy="108.0" r="4" fill="#6366f1" fill-opacity="0.75" stroke="#0f172a" stroke-width="0.5"/><circle cx="368.1" cy="108.0" r="4" fill="#6366f1" fill-opacity="0.75" stroke="#0f172a" stroke-width="0.5"/><circle cx="367.5" cy="108.0" r="4" fill="#6366f1" fill-opacity="0.75" stroke="#0f172a" stroke-width="0.5"/><circle cx="366.2" cy="108.0" r="4" fill="#6366f1" fill-opacity="0.75" stroke="#0f172a" stroke-width="0.5"/><circle cx="367.5" cy="108.0" r="4" fill="#6366f1" fill-opacity="0.75" stroke="#0f172a" stroke-width="0.5"/><circle cx="369.9" cy="108.0" r="4" fill="#6366f1" fill-opacity="0.75" stroke="#0f172a" stroke-width="0.5"/><circle cx="554.7" cy="108.0" r="4" fill="#f97316" fill-opacity="0.75" stroke="#0f172a" stroke-width="0.5"/><circle cx="554.6" cy="108.0" r="4" fill="#f97316" fill-opacity="0.75" stroke="#0f172a" stroke-width="0.5"/><circle cx="554.6" cy="108.0" r="4" fill="#f97316" fill-opacity="0.75" stroke="#0f172a" stroke-width="0.5"/><circle cx="554.6" cy="108.0" r="4" fill="#f97316" fill-opacity="0.75" stroke="#0f172a" stroke-width="0.5"/><circle cx="554.6" cy="108.0" r="4" fill="#f97316" fill-opacity="0.75" stroke="#0f172a" stroke-width="0.5"/><circle cx="554.7" cy="108.0" r="4" fill="#f97316" fill-opacity="0.75" stroke="#0f172a" stroke-width="0.5"/><circle cx="554.6" cy="108.0" r="4" fill="#f97316" fill-opacity="0.75" stroke="#0f172a" stroke-width="0.5"/><circle cx="554.6" cy="108.0" r="4" fill="#f97316" fill-opacity="0.75" stroke="#0f172a" stroke-width="0.5"/><circle cx="554.6" cy="108.0" r="4" fill="#f97316" fill-opacity="0.75" stroke="#0f172a" stroke-width="0.5"/><circle cx="554.7" cy="108.0" r="4" fill="#f97316" fill-opacity="0.75" stroke="#0f172a" stroke-width="0.5"/></g><g><rect x="632" y="80" width="280" height="200" fill="#ffffff" stroke="#e2e8f0" rx="6"/><text x="772" y="98" text-anchor="middle" font-size="13" font-weight="700" fill="#0f172a">news</text><rect x="660" y="108" width="224" height="144" fill="#f8fafc" stroke="#cbd5e1" stroke-width="0.5" rx="2"/><text x="660" y="268" font-size="9" fill="#64748b">log10 tokens</text><text x="656" y="116" text-anchor="end" font-size="9" fill="#64748b">retention</text><circle cx="680.6" cy="108.0" r="4" fill="#6366f1" fill-opacity="0.75" stroke="#0f172a" stroke-width="0.5"/><circle cx="680.6" cy="108.0" r="4" fill="#6366f1" fill-opacity="0.75" stroke="#0f172a" stroke-width="0.5"/><circle cx="681.6" cy="108.0" r="4" fill="#6366f1" fill-opacity="0.75" stroke="#0f172a" stroke-width="0.5"/><circle cx="680.6" cy="108.0" r="4" fill="#6366f1" fill-opacity="0.75" stroke="#0f172a" stroke-width="0.5"/><circle cx="683.1" cy="108.0" r="4" fill="#6366f1" fill-opacity="0.75" stroke="#0f172a" stroke-width="0.5"/><circle cx="680.1" cy="108.0" r="4" fill="#6366f1" fill-opacity="0.75" stroke="#0f172a" stroke-width="0.5"/><circle cx="682.6" cy="108.0" r="4" fill="#6366f1" fill-opacity="0.75" stroke="#0f172a" stroke-width="0.5"/><circle cx="683.1" cy="108.0" r="4" fill="#6366f1" fill-opacity="0.75" stroke="#0f172a" stroke-width="0.5"/><circle cx="682.1" cy="108.0" r="4" fill="#6366f1" fill-opacity="0.75" stroke="#0f172a" stroke-width="0.5"/><circle cx="681.6" cy="108.0" r="4" fill="#6366f1" fill-opacity="0.75" stroke="#0f172a" stroke-width="0.5"/><circle cx="872.8" cy="108.0" r="4" fill="#f97316" fill-opacity="0.75" stroke="#0f172a" stroke-width="0.5"/><circle cx="872.7" cy="108.0" r="4" fill="#f97316" fill-opacity="0.75" stroke="#0f172a" stroke-width="0.5"/><circle cx="872.8" cy="108.0" r="4" fill="#f97316" fill-opacity="0.75" stroke="#0f172a" stroke-width="0.5"/><circle cx="872.8" cy="108.0" r="4" fill="#f97316" fill-opacity="0.75" stroke="#0f172a" stroke-width="0.5"/><circle cx="872.8" cy="108.0" r="4" fill="#f97316" fill-opacity="0.75" stroke="#0f172a" stroke-width="0.5"/><circle cx="872.8" cy="108.0" r="4" fill="#f97316" fill-opacity="0.75" stroke="#0f172a" stroke-width="0.5"/><circle cx="872.8" cy="108.0" r="4" fill="#f97316" fill-opacity="0.75" stroke="#0f172a" stroke-width="0.5"/><circle cx="872.8" cy="108.0" r="4" fill="#f97316" fill-opacity="0.75" stroke="#0f172a" stroke-width="0.5"/><circle cx="872.8" cy="108.0" r="4" fill="#f97316" fill-opacity="0.75" stroke="#0f172a" stroke-width="0.5"/><circle cx="872.8" cy="108.0" r="4" fill="#f97316" fill-opacity="0.75" stroke="#0f172a" stroke-width="0.5"/></g><g><rect x="24" y="304" width="280" height="200" fill="#ffffff" stroke="#e2e8f0" rx="6"/><text x="164" y="322" text-anchor="middle" font-size="13" font-weight="700" fill="#0f172a">search-results</text><rect x="52" y="332" width="224" height="144" fill="#f8fafc" stroke="#cbd5e1" stroke-width="0.5" rx="2"/><text x="52" y="492" font-size="9" fill="#64748b">log10 tokens</text><text x="48" y="340" text-anchor="end" font-size="9" fill="#64748b">retention</text><circle cx="98.6" cy="332.0" r="4" fill="#6366f1" fill-opacity="0.75" stroke="#0f172a" stroke-width="0.5"/><circle cx="96.8" cy="332.0" r="4" fill="#6366f1" fill-opacity="0.75" stroke="#0f172a" stroke-width="0.5"/><circle cx="98.0" cy="332.0" r="4" fill="#6366f1" fill-opacity="0.75" stroke="#0f172a" stroke-width="0.5"/><circle cx="98.0" cy="332.0" r="4" fill="#6366f1" fill-opacity="0.75" stroke="#0f172a" stroke-width="0.5"/><circle cx="96.8" cy="332.0" r="4" fill="#6366f1" fill-opacity="0.75" stroke="#0f172a" stroke-width="0.5"/><circle cx="96.8" cy="332.0" r="4" fill="#6366f1" fill-opacity="0.75" stroke="#0f172a" stroke-width="0.5"/><circle cx="99.5" cy="332.0" r="4" fill="#6366f1" fill-opacity="0.75" stroke="#0f172a" stroke-width="0.5"/><circle cx="95.5" cy="332.0" r="4" fill="#6366f1" fill-opacity="0.75" stroke="#0f172a" stroke-width="0.5"/><circle cx="97.4" cy="332.0" r="4" fill="#6366f1" fill-opacity="0.75" stroke="#0f172a" stroke-width="0.5"/><circle cx="97.7" cy="332.0" r="4" fill="#6366f1" fill-opacity="0.75" stroke="#0f172a" stroke-width="0.5"/><circle cx="247.0" cy="332.0" r="4" fill="#f97316" fill-opacity="0.75" stroke="#0f172a" stroke-width="0.5"/><circle cx="246.9" cy="332.0" r="4" fill="#f97316" fill-opacity="0.75" stroke="#0f172a" stroke-width="0.5"/><circle cx="247.0" cy="332.0" r="4" fill="#f97316" fill-opacity="0.75" stroke="#0f172a" stroke-width="0.5"/><circle cx="247.0" cy="332.0" r="4" fill="#f97316" fill-opacity="0.75" stroke="#0f172a" stroke-width="0.5"/><circle cx="246.9" cy="332.0" r="4" fill="#f97316" fill-opacity="0.75" stroke="#0f172a" stroke-width="0.5"/><circle cx="247.0" cy="332.0" r="4" fill="#f97316" fill-opacity="0.75" stroke="#0f172a" stroke-width="0.5"/><circle cx="247.0" cy="332.0" r="4" fill="#f97316" fill-opacity="0.75" stroke="#0f172a" stroke-width="0.5"/><circle cx="246.9" cy="332.0" r="4" fill="#f97316" fill-opacity="0.75" stroke="#0f172a" stroke-width="0.5"/><circle cx="246.9" cy="332.0" r="4" fill="#f97316" fill-opacity="0.75" stroke="#0f172a" stroke-width="0.5"/><circle cx="247.0" cy="332.0" r="4" fill="#f97316" fill-opacity="0.75" stroke="#0f172a" stroke-width="0.5"/></g><g><rect x="328" y="304" width="280" height="200" fill="#ffffff" stroke="#e2e8f0" rx="6"/><text x="468" y="322" text-anchor="middle" font-size="13" font-weight="700" fill="#0f172a">spa</text><rect x="356" y="332" width="224" height="144" fill="#f8fafc" stroke="#cbd5e1" stroke-width="0.5" rx="2"/><text x="356" y="492" font-size="9" fill="#64748b">log10 tokens</text><text x="352" y="340" text-anchor="end" font-size="9" fill="#64748b">retention</text><circle cx="377.6" cy="332.0" r="4" fill="#6366f1" fill-opacity="0.75" stroke="#0f172a" stroke-width="0.5"/><circle cx="377.6" cy="332.0" r="4" fill="#6366f1" fill-opacity="0.75" stroke="#0f172a" stroke-width="0.5"/><circle cx="378.6" cy="332.0" r="4" fill="#6366f1" fill-opacity="0.75" stroke="#0f172a" stroke-width="0.5"/><circle cx="376.6" cy="332.0" r="4" fill="#6366f1" fill-opacity="0.75" stroke="#0f172a" stroke-width="0.5"/><circle cx="380.1" cy="332.0" r="4" fill="#6366f1" fill-opacity="0.75" stroke="#0f172a" stroke-width="0.5"/><circle cx="377.1" cy="332.0" r="4" fill="#6366f1" fill-opacity="0.75" stroke="#0f172a" stroke-width="0.5"/><circle cx="376.6" cy="332.0" r="4" fill="#6366f1" fill-opacity="0.75" stroke="#0f172a" stroke-width="0.5"/><circle cx="377.6" cy="332.0" r="4" fill="#6366f1" fill-opacity="0.75" stroke="#0f172a" stroke-width="0.5"/><circle cx="379.1" cy="332.0" r="4" fill="#6366f1" fill-opacity="0.75" stroke="#0f172a" stroke-width="0.5"/><circle cx="381.1" cy="332.0" r="4" fill="#6366f1" fill-opacity="0.75" stroke="#0f172a" stroke-width="0.5"/><circle cx="569.7" cy="332.0" r="4" fill="#f97316" fill-opacity="0.75" stroke="#0f172a" stroke-width="0.5"/><circle cx="569.7" cy="332.0" r="4" fill="#f97316" fill-opacity="0.75" stroke="#0f172a" stroke-width="0.5"/><circle cx="569.8" cy="332.0" r="4" fill="#f97316" fill-opacity="0.75" stroke="#0f172a" stroke-width="0.5"/><circle cx="569.7" cy="332.0" r="4" fill="#f97316" fill-opacity="0.75" stroke="#0f172a" stroke-width="0.5"/><circle cx="569.8" cy="332.0" r="4" fill="#f97316" fill-opacity="0.75" stroke="#0f172a" stroke-width="0.5"/><circle cx="569.7" cy="332.0" r="4" fill="#f97316" fill-opacity="0.75" stroke="#0f172a" stroke-width="0.5"/><circle cx="569.7" cy="332.0" r="4" fill="#f97316" fill-opacity="0.75" stroke="#0f172a" stroke-width="0.5"/><circle cx="569.7" cy="332.0" r="4" fill="#f97316" fill-opacity="0.75" stroke="#0f172a" stroke-width="0.5"/><circle cx="569.8" cy="332.0" r="4" fill="#f97316" fill-opacity="0.75" stroke="#0f172a" stroke-width="0.5"/><circle cx="569.8" cy="332.0" r="4" fill="#f97316" fill-opacity="0.75" stroke="#0f172a" stroke-width="0.5"/></g><g><rect x="632" y="304" width="280" height="200" fill="#ffffff" stroke="#e2e8f0" rx="6"/><text x="772" y="322" text-anchor="middle" font-size="13" font-weight="700" fill="#0f172a">All archetypes</text><rect x="660" y="332" width="224" height="144" fill="#f8fafc" stroke="#cbd5e1" stroke-width="0.5" rx="2"/><text x="660" y="492" font-size="9" fill="#64748b">log10 tokens</text><text x="656" y="340" text-anchor="end" font-size="9" fill="#64748b">retention</text><circle cx="672.1" cy="332.0" r="4" fill="#6366f1" fill-opacity="0.75" stroke="#0f172a" stroke-width="0.5"/><circle cx="670.8" cy="332.0" r="4" fill="#6366f1" fill-opacity="0.75" stroke="#0f172a" stroke-width="0.5"/><circle cx="672.1" cy="332.0" r="4" fill="#6366f1" fill-opacity="0.75" stroke="#0f172a" stroke-width="0.5"/><circle cx="671.5" cy="332.0" r="4" fill="#6366f1" fill-opacity="0.75" stroke="#0f172a" stroke-width="0.5"/><circle cx="670.8" cy="332.0" r="4" fill="#6366f1" fill-opacity="0.75" stroke="#0f172a" stroke-width="0.5"/><circle cx="672.1" cy="332.0" r="4" fill="#6366f1" fill-opacity="0.75" stroke="#0f172a" stroke-width="0.5"/><circle cx="671.5" cy="332.0" r="4" fill="#6366f1" fill-opacity="0.75" stroke="#0f172a" stroke-width="0.5"/><circle cx="670.2" cy="332.0" r="4" fill="#6366f1" fill-opacity="0.75" stroke="#0f172a" stroke-width="0.5"/><circle cx="671.5" cy="332.0" r="4" fill="#6366f1" fill-opacity="0.75" stroke="#0f172a" stroke-width="0.5"/><circle cx="673.9" cy="332.0" r="4" fill="#6366f1" fill-opacity="0.75" stroke="#0f172a" stroke-width="0.5"/><circle cx="680.6" cy="332.0" r="4" fill="#6366f1" fill-opacity="0.75" stroke="#0f172a" stroke-width="0.5"/><circle cx="680.6" cy="332.0" r="4" fill="#6366f1" fill-opacity="0.75" stroke="#0f172a" stroke-width="0.5"/><circle cx="681.6" cy="332.0" r="4" fill="#6366f1" fill-opacity="0.75" stroke="#0f172a" stroke-width="0.5"/><circle cx="680.6" cy="332.0" r="4" fill="#6366f1" fill-opacity="0.75" stroke="#0f172a" stroke-width="0.5"/><circle cx="683.1" cy="332.0" r="4" fill="#6366f1" fill-opacity="0.75" stroke="#0f172a" stroke-width="0.5"/><circle cx="680.1" cy="332.0" r="4" fill="#6366f1" fill-opacity="0.75" stroke="#0f172a" stroke-width="0.5"/><circle cx="682.6" cy="332.0" r="4" fill="#6366f1" fill-opacity="0.75" stroke="#0f172a" stroke-width="0.5"/><circle cx="683.1" cy="332.0" r="4" fill="#6366f1" fill-opacity="0.75" stroke="#0f172a" stroke-width="0.5"/><circle cx="682.1" cy="332.0" r="4" fill="#6366f1" fill-opacity="0.75" stroke="#0f172a" stroke-width="0.5"/><circle cx="681.6" cy="332.0" r="4" fill="#6366f1" fill-opacity="0.75" stroke="#0f172a" stroke-width="0.5"/><circle cx="682.1" cy="332.0" r="4" fill="#6366f1" fill-opacity="0.75" stroke="#0f172a" stroke-width="0.5"/><circle cx="679.5" cy="332.0" r="4" fill="#6366f1" fill-opacity="0.75" stroke="#0f172a" stroke-width="0.5"/><circle cx="676.8" cy="332.0" r="4" fill="#6366f1" fill-opacity="0.75" stroke="#0f172a" stroke-width="0.5"/><circle cx="675.7" cy="332.0" r="4" fill="#6366f1" fill-opacity="0.75" stroke="#0f172a" stroke-width="0.5"/><circle cx="675.7" cy="332.0" r="4" fill="#6366f1" fill-opacity="0.75" stroke="#0f172a" stroke-width="0.5"/><circle cx="678.5" cy="332.0" r="4" fill="#6366f1" fill-opacity="0.75" stroke="#0f172a" stroke-width="0.5"/><circle cx="679.0" cy="332.0" r="4" fill="#6366f1" fill-opacity="0.75" stroke="#0f172a" stroke-width="0.5"/><circle cx="675.7" cy="332.0" r="4" fill="#6366f1" fill-opacity="0.75" stroke="#0f172a" stroke-width="0.5"/><circle cx="677.4" cy="332.0" r="4" fill="#6366f1" fill-opacity="0.75" stroke="#0f172a" stroke-width="0.5"/><circle cx="675.1" cy="332.0" r="4" fill="#6366f1" fill-opacity="0.75" stroke="#0f172a" stroke-width="0.5"/><circle cx="681.6" cy="332.0" r="4" fill="#6366f1" fill-opacity="0.75" stroke="#0f172a" stroke-width="0.5"/><circle cx="681.6" cy="332.0" r="4" fill="#6366f1" fill-opacity="0.75" stroke="#0f172a" stroke-width="0.5"/><circle cx="682.6" cy="332.0" r="4" fill="#6366f1" fill-opacity="0.75" stroke="#0f172a" stroke-width="0.5"/><circle cx="680.6" cy="332.0" r="4" fill="#6366f1" fill-opacity="0.75" stroke="#0f172a" stroke-width="0.5"/><circle cx="684.1" cy="332.0" r="4" fill="#6366f1" fill-opacity="0.75" stroke="#0f172a" stroke-width="0.5"/><circle cx="681.1" cy="332.0" r="4" fill="#6366f1" fill-opacity="0.75" stroke="#0f172a" stroke-width="0.5"/><circle cx="680.6" cy="332.0" r="4" fill="#6366f1" fill-opacity="0.75" stroke="#0f172a" stroke-width="0.5"/><circle cx="681.6" cy="332.0" r="4" fill="#6366f1" fill-opacity="0.75" stroke="#0f172a" stroke-width="0.5"/><circle cx="683.1" cy="332.0" r="4" fill="#6366f1" fill-opacity="0.75" stroke="#0f172a" stroke-width="0.5"/><circle cx="685.1" cy="332.0" r="4" fill="#6366f1" fill-opacity="0.75" stroke="#0f172a" stroke-width="0.5"/><circle cx="706.6" cy="332.0" r="4" fill="#6366f1" fill-opacity="0.75" stroke="#0f172a" stroke-width="0.5"/><circle cx="704.8" cy="332.0" r="4" fill="#6366f1" fill-opacity="0.75" stroke="#0f172a" stroke-width="0.5"/><circle cx="706.0" cy="332.0" r="4" fill="#6366f1" fill-opacity="0.75" stroke="#0f172a" stroke-width="0.5"/><circle cx="706.0" cy="332.0" r="4" fill="#6366f1" fill-opacity="0.75" stroke="#0f172a" stroke-width="0.5"/><circle cx="704.8" cy="332.0" r="4" fill="#6366f1" fill-opacity="0.75" stroke="#0f172a" stroke-width="0.5"/><circle cx="704.8" cy="332.0" r="4" fill="#6366f1" fill-opacity="0.75" stroke="#0f172a" stroke-width="0.5"/><circle cx="707.5" cy="332.0" r="4" fill="#6366f1" fill-opacity="0.75" stroke="#0f172a" stroke-width="0.5"/><circle cx="703.5" cy="332.0" r="4" fill="#6366f1" fill-opacity="0.75" stroke="#0f172a" stroke-width="0.5"/><circle cx="705.4" cy="332.0" r="4" fill="#6366f1" fill-opacity="0.75" stroke="#0f172a" stroke-width="0.5"/><circle cx="705.7" cy="332.0" r="4" fill="#6366f1" fill-opacity="0.75" stroke="#0f172a" stroke-width="0.5"/><circle cx="858.7" cy="332.0" r="4" fill="#f97316" fill-opacity="0.75" stroke="#0f172a" stroke-width="0.5"/><circle cx="858.6" cy="332.0" r="4" fill="#f97316" fill-opacity="0.75" stroke="#0f172a" stroke-width="0.5"/><circle cx="858.6" cy="332.0" r="4" fill="#f97316" fill-opacity="0.75" stroke="#0f172a" stroke-width="0.5"/><circle cx="858.6" cy="332.0" r="4" fill="#f97316" fill-opacity="0.75" stroke="#0f172a" stroke-width="0.5"/><circle cx="858.6" cy="332.0" r="4" fill="#f97316" fill-opacity="0.75" stroke="#0f172a" stroke-width="0.5"/><circle cx="858.7" cy="332.0" r="4" fill="#f97316" fill-opacity="0.75" stroke="#0f172a" stroke-width="0.5"/><circle cx="858.6" cy="332.0" r="4" fill="#f97316" fill-opacity="0.75" stroke="#0f172a" stroke-width="0.5"/><circle cx="858.6" cy="332.0" r="4" fill="#f97316" fill-opacity="0.75" stroke="#0f172a" stroke-width="0.5"/><circle cx="858.6" cy="332.0" r="4" fill="#f97316" fill-opacity="0.75" stroke="#0f172a" stroke-width="0.5"/><circle cx="858.7" cy="332.0" r="4" fill="#f97316" fill-opacity="0.75" stroke="#0f172a" stroke-width="0.5"/><circle cx="872.8" cy="332.0" r="4" fill="#f97316" fill-opacity="0.75" stroke="#0f172a" stroke-width="0.5"/><circle cx="872.7" cy="332.0" r="4" fill="#f97316" fill-opacity="0.75" stroke="#0f172a" stroke-width="0.5"/><circle cx="872.8" cy="332.0" r="4" fill="#f97316" fill-opacity="0.75" stroke="#0f172a" stroke-width="0.5"/><circle cx="872.8" cy="332.0" r="4" fill="#f97316" fill-opacity="0.75" stroke="#0f172a" stroke-width="0.5"/><circle cx="872.8" cy="332.0" r="4" fill="#f97316" fill-opacity="0.75" stroke="#0f172a" stroke-width="0.5"/><circle cx="872.8" cy="332.0" r="4" fill="#f97316" fill-opacity="0.75" stroke="#0f172a" stroke-width="0.5"/><circle cx="872.8" cy="332.0" r="4" fill="#f97316" fill-opacity="0.75" stroke="#0f172a" stroke-width="0.5"/><circle cx="872.8" cy="332.0" r="4" fill="#f97316" fill-opacity="0.75" stroke="#0f172a" stroke-width="0.5"/><circle cx="872.8" cy="332.0" r="4" fill="#f97316" fill-opacity="0.75" stroke="#0f172a" stroke-width="0.5"/><circle cx="872.8" cy="332.0" r="4" fill="#f97316" fill-opacity="0.75" stroke="#0f172a" stroke-width="0.5"/><circle cx="845.0" cy="332.0" r="4" fill="#f97316" fill-opacity="0.75" stroke="#0f172a" stroke-width="0.5"/><circle cx="844.9" cy="332.0" r="4" fill="#f97316" fill-opacity="0.75" stroke="#0f172a" stroke-width="0.5"/><circle cx="844.8" cy="332.0" r="4" fill="#f97316" fill-opacity="0.75" stroke="#0f172a" stroke-width="0.5"/><circle cx="844.7" cy="332.0" r="4" fill="#f97316" fill-opacity="0.75" stroke="#0f172a" stroke-width="0.5"/><circle cx="844.7" cy="332.0" r="4" fill="#f97316" fill-opacity="0.75" stroke="#0f172a" stroke-width="0.5"/><circle cx="844.8" cy="332.0" r="4" fill="#f97316" fill-opacity="0.75" stroke="#0f172a" stroke-width="0.5"/><circle cx="844.9" cy="332.0" r="4" fill="#f97316" fill-opacity="0.75" stroke="#0f172a" stroke-width="0.5"/><circle cx="844.7" cy="332.0" r="4" fill="#f97316" fill-opacity="0.75" stroke="#0f172a" stroke-width="0.5"/><circle cx="844.8" cy="332.0" r="4" fill="#f97316" fill-opacity="0.75" stroke="#0f172a" stroke-width="0.5"/><circle cx="844.7" cy="332.0" r="4" fill="#f97316" fill-opacity="0.75" stroke="#0f172a" stroke-width="0.5"/><circle cx="873.7" cy="332.0" r="4" fill="#f97316" fill-opacity="0.75" stroke="#0f172a" stroke-width="0.5"/><circle cx="873.7" cy="332.0" r="4" fill="#f97316" fill-opacity="0.75" stroke="#0f172a" stroke-width="0.5"/><circle cx="873.8" cy="332.0" r="4" fill="#f97316" fill-opacity="0.75" stroke="#0f172a" stroke-width="0.5"/><circle cx="873.7" cy="332.0" r="4" fill="#f97316" fill-opacity="0.75" stroke="#0f172a" stroke-width="0.5"/><circle cx="873.8" cy="332.0" r="4" fill="#f97316" fill-opacity="0.75" stroke="#0f172a" stroke-width="0.5"/><circle cx="873.7" cy="332.0" r="4" fill="#f97316" fill-opacity="0.75" stroke="#0f172a" stroke-width="0.5"/><circle cx="873.7" cy="332.0" r="4" fill="#f97316" fill-opacity="0.75" stroke="#0f172a" stroke-width="0.5"/><circle cx="873.7" cy="332.0" r="4" fill="#f97316" fill-opacity="0.75" stroke="#0f172a" stroke-width="0.5"/><circle cx="873.8" cy="332.0" r="4" fill="#f97316" fill-opacity="0.75" stroke="#0f172a" stroke-width="0.5"/><circle cx="873.8" cy="332.0" r="4" fill="#f97316" fill-opacity="0.75" stroke="#0f172a" stroke-width="0.5"/><circle cx="855.0" cy="332.0" r="4" fill="#f97316" fill-opacity="0.75" stroke="#0f172a" stroke-width="0.5"/><circle cx="854.9" cy="332.0" r="4" fill="#f97316" fill-opacity="0.75" stroke="#0f172a" stroke-width="0.5"/><circle cx="855.0" cy="332.0" r="4" fill="#f97316" fill-opacity="0.75" stroke="#0f172a" stroke-width="0.5"/><circle cx="855.0" cy="332.0" r="4" fill="#f97316" fill-opacity="0.75" stroke="#0f172a" stroke-width="0.5"/><circle cx="854.9" cy="332.0" r="4" fill="#f97316" fill-opacity="0.75" stroke="#0f172a" stroke-width="0.5"/><circle cx="855.0" cy="332.0" r="4" fill="#f97316" fill-opacity="0.75" stroke="#0f172a" stroke-width="0.5"/><circle cx="855.0" cy="332.0" r="4" fill="#f97316" fill-opacity="0.75" stroke="#0f172a" stroke-width="0.5"/><circle cx="854.9" cy="332.0" r="4" fill="#f97316" fill-opacity="0.75" stroke="#0f172a" stroke-width="0.5"/><circle cx="854.9" cy="332.0" r="4" fill="#f97316" fill-opacity="0.75" stroke="#0f172a" stroke-width="0.5"/><circle cx="855.0" cy="332.0" r="4" fill="#f97316" fill-opacity="0.75" stroke="#0f172a" stroke-width="0.5"/></g><circle cx="30" cy="576" r="5" fill="#f97316"/><text x="42" y="580" font-size="11" fill="#0f172a">crawlee-cheerio</text><circle cx="270" cy="576" r="5" fill="#6366f1"/><text x="282" y="580" font-size="11" fill="#0f172a">deterministic-static</text><text x="468" y="634" text-anchor="middle" font-size="11" fill="#475569">350 cells skipped: live-only (set OPENCHROME_BENCH_LIVE=1 to run)</text></svg>