<svg xmlns="http://www.w3.org/2000/svg" viewBox="0 0 720 380" font-family="-apple-system, BlinkMacSystemFont, 'Segoe UI', sans-serif"><rect width="720" height="380" fill="#f8fafc" rx="8"/><text x="360" y="32" text-anchor="middle" font-size="18" font-weight="700" fill="#0f172a">Success rate vs concurrency (#1258, PRIMARY)</text><text x="360" y="52" text-anchor="middle" font-size="11" fill="#64748b">Per-page success rate. Reported separately from throughput.</text><line x1="60" y1="320.0" x2="600" y2="320.0" stroke="#e2e8f0" stroke-width="0.5"/><text x="54" y="324.0" text-anchor="end" font-size="10" fill="#94a3b8">0%</text><line x1="60" y1="257.5" x2="600" y2="257.5" stroke="#e2e8f0" stroke-width="0.5"/><text x="54" y="261.5" text-anchor="end" font-size="10" fill="#94a3b8">26%</text><line x1="60" y1="195.0" x2="600" y2="195.0" stroke="#e2e8f0" stroke-width="0.5"/><text x="54" y="199.0" text-anchor="end" font-size="10" fill="#94a3b8">53%</text><line x1="60" y1="132.5" x2="600" y2="132.5" stroke="#e2e8f0" stroke-width="0.5"/><text x="54" y="136.5" text-anchor="end" font-size="10" fill="#94a3b8">79%</text><line x1="60" y1="70.0" x2="600" y2="70.0" stroke="#e2e8f0" stroke-width="0.5"/><text x="54" y="74.0" text-anchor="end" font-size="10" fill="#94a3b8">105%</text><text x="60" y="46" font-size="11" fill="#64748b">success rate</text><line x1="60" y1="320" x2="600" y2="320" stroke="#cbd5e1" stroke-width="1"/><text x="60.0" y="340" text-anchor="middle" font-size="12" fill="#475569">1</text><text x="240.0" y="340" text-anchor="middle" font-size="12" fill="#475569">5</text><text x="420.0" y="340" text-anchor="middle" font-size="12" fill="#475569">10</text><text x="600.0" y="340" text-anchor="middle" font-size="12" fill="#475569">20</text><text x="330" y="364" text-anchor="middle" font-size="11" fill="#64748b">concurrency</text><path d="M 60.0 81.9 L 240.0 81.9 L 420.0 81.9 L 600.0 81.9" stroke="#f97316" stroke-width="2.5" fill="none"/><circle cx="60.0" cy="81.9" r="4" fill="#f97316"/><circle cx="240.0" cy="81.9" r="4" fill="#f97316"/><circle cx="420.0" cy="81.9" r="4" fill="#f97316"/><circle cx="600.0" cy="81.9" r="4" fill="#f97316"/><g><rect x="616" y="70" width="14" height="3" fill="#f97316"/><text x="636" y="75" font-size="11" fill="#0f172a">OpenChrome</text></g></svg>